# File created by Blade
# Date/Time:  Tue Sep 30 19:10:28 2014
#---------------------------------------------------------
:version 1.10
:name HOM
:units
  mass 1.0
  length 1.000000
  angle deg
:documentation
     Acclaim Skeleton File
:root
   axis xyz
   order TX TY TZ RX RY RZ
   position 0.000000 0.000000 0.000000
   orientation 0 0 0
:bonedata
   begin
      id 1
      name Spine_dum
      direction 0.000000 1.000000 0.000000
      length 7.508948
      axis 0.0 0.0 0.0 xyz
   end
   begin
      id 2
      name LeftUpLeg_dum
      direction 1.000000 0.000000 0.000000
      length 3.000560
      axis 0.0 0.0 0.0 xyz
   end
   begin
      id 3
      name RightUpLeg_dum
      direction -1.000000 0.000000 0.000000
      length 3.000560
      axis 0.0 0.0 0.0 xyz
   end
   begin
      id 4
      name Spine
      direction 0.000000 1.000000 0.000000
      length 0.000000
      axis 0.0 0.0 0.0 xyz
      dof rx ry rz
   end
   begin
      id 5
      name Spine_dum1
      direction 0.000000 1.000000 0.000000
      length 13.861154
      axis 0.0 0.0 0.0 xyz
   end
   begin
      id 6
      name Spine_dum2
      direction 0.000000 1.000000 0.000000
      length 8.204781
      axis 0.0 0.0 0.0 xyz
   end
   begin
      id 7
      name Spine_dum3
      direction 0.000000 1.000000 0.000000
      length 8.204781
      axis 0.0 0.0 0.0 xyz
   end
   begin
      id 8
      name Head
      direction 0.000000 1.000000 0.000000
      length 4.527550
      axis 0.0 0.0 0.0 xyz
      dof rx ry rz
   end
   begin
      id 9
      name LeftShoulder
      direction 1.000000 0.000000 0.000000
      length 6.635956
      axis 0.0 0.0 -90.0 xyz
      dof rx ry rz
   end
   begin
      id 10
      name LeftArm
      direction 1.000000 0.000000 0.000000
      length 10.274218
      axis 0.0 0.0 -90.0 xyz
      dof rx ry rz
   end
   begin
      id 11
      name LeftForeArm
      direction 1.000000 0.000000 0.000000
      length 8.522147
      axis 0.0 0.0 -90.0 xyz
      dof ry rz rx
   end
   begin
      id 12
      name LeftHand
      direction 0.000000 0.000000 0.000000
      length 0.000000
      axis 0.0 0.0 -90.0 xyz
      dof rx ry rz
   end
   begin
      id 13
      name LeftHand_dum1
      direction 0.000000 0.000000 0.000000
      length 0.000000
      axis 0.0 0.0 -90.0 xyz
   end
   begin
      id 14
      name LeftHand_dum2
      direction 1.000000 0.000000 0.000000
      length 3.937000
      axis 0.0 0.0 -90.0 xyz
   end
   begin
      id 15
      name LeftHandThumb1
      direction 0.000000 0.000000 1.000000
      length 3.937000
      axis 0.0 0.0 -90.0 xyz
      dof rx rz ry
   end
   begin
      id 16
      name RightShoulder
      direction -1.000000 0.000000 0.000000
      length 6.635956
      axis 0.0 0.0 90.0 xyz
      dof rx ry rz
   end
   begin
      id 17
      name RightArm
      direction -1.000000 0.000000 0.000000
      length 10.274218
      axis 0.0 0.0 90.0 xyz
      dof rx ry rz
   end
   begin
      id 18
      name RightForeArm
      direction -1.000000 0.000000 0.000000
      length 8.522147
      axis 0.0 0.0 90.0 xyz
      dof ry rz rx
   end
   begin
      id 19
      name RightHand
      direction 0.000000 0.000000 0.000000
      length 0.000000
      axis 0.0 0.0 90.0 xyz
      dof rx ry rz
   end
   begin
      id 20
      name RightHand_dum1
      direction 0.000000 0.000000 0.000000
      length 0.000000
      axis 0.0 0.0 90.0 xyz
   end
   begin
      id 21
      name RightHand_dum2
      direction -1.000000 0.000000 0.000000
      length 3.937000
      axis 0.0 0.0 90.0 xyz
   end
   begin
      id 22
      name RightHandThumb1
      direction 0.000000 0.000000 1.000000
      length 3.937000
      axis 0.0 0.0 90.0 xyz
      dof rx rz ry
   end
   begin
      id 23
      name LeftUpLeg
      direction 0.000000 -1.000000 0.000000
      length 16.490845
      axis 0.0 0.0 0.0 xyz
      dof rx ry rz
   end
   begin
      id 24
      name LeftLeg
      direction 0.000000 -1.000000 0.000000
      length 14.556576
      axis 0.0 0.0 0.0 xyz
      dof rx ry rz
   end
   begin
      id 25
      name LeftFoot
      direction 0.000000 -0.258819 0.965926
      length 4.831116
      axis 15.0 0.0 0.0 xyz
      dof rx ry rz
   end
   begin
      id 26
      name LeftToeBase
      direction 0.000000 0.000000 1.000000
      length 2.952750
      axis 0.0 0.0 0.0 xyz
      dof rx ry rz
   end
   begin
      id 27
      name RightUpLeg
      direction 0.000000 -1.000000 0.000000
      length 16.490845
      axis 0.0 0.0 0.0 xyz
      dof rx ry rz
   end
   begin
      id 28
      name RightLeg
      direction 0.000000 -1.000000 0.000000
      length 14.556576
      axis 0.0 0.0 0.0 xyz
      dof rx ry rz
   end
   begin
      id 29
      name RightFoot
      direction 0.000000 -0.258819 0.965926
      length 4.831116
      axis 15.0 0.0 0.0 xyz
      dof rx ry rz
   end
   begin
      id 30
      name RightToeBase
      direction 0.000000 0.000000 1.000000
      length 2.952750
      axis 0.0 0.0 0.0 xyz
      dof rx ry rz
   end
:hierarchy
   begin
      root Spine_dum LeftUpLeg_dum RightUpLeg_dum
      Spine_dum Spine
      LeftUpLeg_dum LeftUpLeg
      RightUpLeg_dum RightUpLeg
      Spine Spine_dum1 Spine_dum2 Spine_dum3
      Spine_dum1 Head
      Spine_dum2 LeftShoulder
      Spine_dum3 RightShoulder
      LeftShoulder LeftArm
      LeftArm LeftForeArm
      LeftForeArm LeftHand
      LeftHand LeftHand_dum1 LeftHand_dum2
      LeftHand_dum1 LeftHandThumb1
      RightShoulder RightArm
      RightArm RightForeArm
      RightForeArm RightHand
      RightHand RightHand_dum1 RightHand_dum2
      RightHand_dum1 RightHandThumb1
      LeftUpLeg LeftLeg
      LeftLeg LeftFoot
      LeftFoot LeftToeBase
      RightUpLeg RightLeg
      RightLeg RightFoot
      RightFoot RightToeBase
   end

# File created by Blade
# Date/Time:  Wed Sep 24 19:10:19 2014
# Frame Rate: 120.000 fps
#------------------------------------------------------
:FULLY-SPECIFIED
:DEGREES
141
root -7.685400 32.850494 -3.390354 11.126216 4.897281 1.319476
Spine -8.404334 6.946993 1.833727
Head -9.241584 -6.682524 4.257582
LeftShoulder -8.300403 14.301570 15.625295
LeftArm 16.964271 -34.550942 -66.797921
LeftForeArm -0.481341 -0.000000 63.853807
LeftHand -31.580690 -0.000000 33.722251
LeftHandThumb1 -26.253704 0.000000 33.147579
RightShoulder -20.017970 10.397310 -24.341479
RightArm -15.509547 -31.400226 93.934593
RightForeArm -23.655330 -0.000000 27.558426
RightHand -5.465653 -0.000000 11.781191
RightHandThumb1 -24.326973 -0.000000 -32.862282
LeftUpLeg -45.856985 8.620741 -1.416516
LeftLeg 61.130319 -0.000000 -0.000000
LeftFoot 11.412303 11.272581 -15.441395
LeftToeBase 7.328865 -0.000000 -0.000000
RightUpLeg -9.675956 -5.565719 5.172359
RightLeg 3.977137 -0.000000 -0.000000
RightFoot -8.559427 -10.579354 -8.722763
RightToeBase -0.119518 -0.000000 0.000000
142
root -7.715750 32.852104 -3.417390 11.113479 4.952850 1.380761
Spine -8.381611 6.943745 1.745467
Head -9.117193 -6.674300 4.363679
LeftShoulder -8.279418 14.207331 15.635677
LeftArm 16.953749 -34.477774 -66.659420
LeftForeArm -0.641478 -0.000000 63.725359
LeftHand -31.709385 -0.000000 33.688158
LeftHandThumb1 -26.253704 0.000000 33.147579
RightShoulder -20.044143 10.493419 -24.268331
RightArm -15.538984 -31.445457 93.982094
RightForeArm -23.667717 -0.000000 27.619695
RightHand -5.613081 -0.000000 11.807085
RightHandThumb1 -24.326973 -0.000000 -32.862282
LeftUpLeg -47.186880 8.785334 -1.643336
LeftLeg 62.641653 -0.000000 -0.000000
LeftFoot 12.923938 12.929389 -15.548421
LeftToeBase 9.009472 -0.000000 -0.000000
RightUpLeg -9.732072 -5.601256 5.172467
RightLeg 4.022333 -0.000000 -0.000000
RightFoot -8.560158 -10.643556 -8.738968
RightToeBase -0.010647 -0.000000 0.000000
143
root -7.747863 32.853291 -3.439208 11.078160 4.999598 1.412508
Spine -8.346475 6.953973 1.685305
Head -9.000570 -6.702993 4.485804
LeftShoulder -8.231586 14.155695 15.658184
LeftArm 16.914337 -34.467315 -66.541825
LeftForeArm -0.733624 -0.000000 63.630125
LeftHand -31.618196 -0.000000 33.530081
LeftHandThumb1 -26.253704 0.000000 33.147579
RightShoulder -20.110819 10.475578 -24.186161
RightArm -15.424988 -31.568907 93.982213
RightForeArm -23.570877 -0.000000 27.617856
RightHand -5.635164 -0.000000 11.719814
RightHandThumb1 -24.326973 -0.000000 -32.862282
LeftUpLeg -48.479528 8.939957 -1.824070
LeftLeg 64.163413 -0.000000 -0.000000
LeftFoot 14.174692 14.482552 -15.547941
LeftToeBase 10.845154 -0.000000 -0.000000
RightUpLeg -9.754471 -5.657288 5.207804
RightLeg 4.048619 -0.000000 -0.000000
RightFoot -8.515325 -10.640144 -8.792643
RightToeBase -0.025045 -0.000000 0.000000
144
root -7.775785 32.856301 -3.460567 11.051326 5.025791 1.478245
Spine -8.321025 6.939724 1.586183
Head -8.870752 -6.666980 4.617030
LeftShoulder -8.285243 14.115188 15.645374
LeftArm 16.979805 -34.359454 -66.413657
LeftForeArm -0.808502 -0.000000 63.455021
LeftHand -31.662226 -0.000000 33.775436
LeftHandThumb1 -26.253704 0.000000 33.147579
RightShoulder -20.143450 10.469805 -24.092729
RightArm -15.312900 -31.608018 93.971633
RightForeArm -23.544014 -0.000000 27.612326
RightHand -5.629321 -0.000000 11.626557
RightHandThumb1 -24.326973 -0.000000 -32.862282
LeftUpLeg -49.752734 9.128992 -2.100801
LeftLeg 65.592780 -0.000000 -0.000000
LeftFoot 15.413904 16.128839 -15.418348
LeftToeBase 9.032205 -0.000000 -0.000000
RightUpLeg -9.793932 -5.670666 5.195490
RightLeg 4.117801 -0.000000 -0.000000
RightFoot -8.511697 -10.706011 -8.811277
RightToeBase 0.062192 -0.000000 -0.000000
145
root -7.803039 32.858540 -3.479411 11.005740 5.054242 1.545304
Spine -8.277207 6.913739 1.492271
Head -8.748082 -6.651244 4.704190
LeftShoulder -8.302043 14.131785 15.665813
LeftArm 17.031806 -34.331552 -66.355936
LeftForeArm -0.879981 0.000000 63.326526
LeftHand -31.625091 -0.000000 33.757646
LeftHandThumb1 -26.253704 0.000000 33.147579
RightShoulder -20.138057 10.541022 -24.034524
RightArm -15.325023 -31.573941 94.020768
RightForeArm -23.561222 -0.000000 27.634731
RightHand -5.634959 -0.000000 11.484141
RightHandThumb1 -24.326973 -0.000000 -32.862282
LeftUpLeg -51.011654 9.314519 -2.353076
LeftLeg 67.005423 -0.000000 -0.000000
LeftFoot 16.511245 17.530837 -15.252718
LeftToeBase 9.743902 -0.000000 -0.000000
RightUpLeg -9.804223 -5.683645 5.175519
RightLeg 4.147776 -0.000000 -0.000000
RightFoot -8.467711 -10.816981 -8.914661
RightToeBase -0.079714 -0.000000 0.000000
146
root -7.829401 32.862132 -3.497564 10.976040 5.071774 1.622185
Spine -8.256096 6.919591 1.363660
Head -8.651728 -6.703633 4.872707
LeftShoulder -8.282902 14.092359 15.709445
LeftArm 17.005708 -34.290105 -66.259678
LeftForeArm -0.921982 -0.000000 63.221983
LeftHand -31.572586 -0.000000 33.760478
LeftHandThumb1 -26.253704 0.000000 33.147579
RightShoulder -20.174741 10.561750 -23.949165
RightArm -15.281533 -31.470644 94.016815
RightForeArm -23.557812 0.000000 27.670167
RightHand -5.652463 -0.000000 11.542699
RightHandThumb1 -24.326973 -0.000000 -32.862282
LeftUpLeg -52.262010 9.426765 -2.595539
LeftLeg 68.356533 -0.000000 -0.000000
LeftFoot 17.555332 18.596078 -14.747005
LeftToeBase 10.092949 -0.000000 -0.000000
RightUpLeg -9.839838 -5.703311 5.151086
RightLeg 4.222517 -0.000000 -0.000000
RightFoot -8.442360 -10.815519 -8.871574
RightToeBase -0.187265 -0.000000 0.000000
147
root -7.855207 32.866529 -3.515080 10.947489 5.078898 1.699982
Spine -8.237955 6.903974 1.239185
Head -8.540736 -6.700857 5.000460
LeftShoulder -8.327001 14.088181 15.722022
LeftArm 17.055497 -34.263572 -66.204259
LeftForeArm -1.004718 -0.000000 63.130544
LeftHand -31.537088 -0.000000 33.693799
LeftHandThumb1 -26.253704 0.000000 33.147579
RightShoulder -20.199884 10.606016 -23.873827
RightArm -15.272858 -31.440509 94.049315
RightForeArm -23.592484 -0.000000 27.698277
RightHand -5.666389 -0.000000 11.432427
RightHandThumb1 -24.326973 -0.000000 -32.862282
LeftUpLeg -53.492274 9.509613 -2.815907
LeftLeg 69.668290 -0.000000 -0.000000
LeftFoot 18.662373 19.110327 -14.035442
LeftToeBase 10.346758 -0.000000 -0.000000
RightUpLeg -9.877351 -5.696494 5.117766
RightLeg 4.292348 -0.000000 -0.000000
RightFoot -8.461033 -10.956964 -9.121267
RightToeBase 0.131336 -0.000000 -0.000000
148
root -7.879201 32.870113 -3.531243 10.930859 5.082225 1.768464
Spine -8.235441 6.886364 1.134729
Head -8.446534 -6.681856 5.109196
LeftShoulder -8.337921 14.064214 15.747262
LeftArm 16.973962 -34.239469 -66.100308
LeftForeArm -1.108123 0.000000 63.107118
LeftHand -31.526987 -0.000000 33.624392
LeftHandThumb1 -26.253704 0.000000 33.147579
RightShoulder -20.220469 10.619563 -23.811499
RightArm -15.254457 -31.397785 94.063499
RightForeArm -23.641903 0.000000 27.768502
RightHand -5.657746 -0.000000 11.410290
RightHandThumb1 -24.326973 -0.000000 -32.862282
LeftUpLeg -54.729298 9.612976 -3.064187
LeftLeg 70.954458 -0.000000 -0.000000
LeftFoot 19.647480 19.351647 -13.379293
LeftToeBase 9.847585 -0.000000 -0.000000
RightUpLeg -9.923253 -5.663732 5.084109
RightLeg 4.397042 -0.000000 -0.000000
RightFoot -8.473226 -10.941862 -8.954206
RightToeBase 0.045745 -0.000000 -0.000000
149
root -7.903613 32.874548 -3.548200 10.922413 5.107095 1.840157
Spine -8.232304 6.851332 1.030978
Head -8.365707 -6.679811 5.182235
LeftShoulder -8.368621 14.074570 15.751003
LeftArm 16.941787 -34.176845 -65.995399
LeftForeArm -1.162198 -0.000000 63.091359
LeftHand -31.470117 -0.000000 33.541101
LeftHandThumb1 -26.253704 0.000000 33.147579
RightShoulder -20.272666 10.609740 -23.753259
RightArm -15.199147 -31.411268 94.067996
RightForeArm -23.588246 -0.000000 27.834744
RightHand -5.656472 -0.000000 11.420963
RightHandThumb1 -24.326973 -0.000000 -32.862282
LeftUpLeg -55.973635 9.638394 -3.269190
LeftLeg 72.213525 -0.000000 -0.000000
LeftFoot 20.665597 19.139732 -12.834849
LeftToeBase 10.097464 -0.000000 -0.000000
RightUpLeg -9.977763 -5.701018 5.062809
RightLeg 4.462212 -0.000000 -0.000000
RightFoot -8.473853 -10.979802 -8.994666
RightToeBase 0.130953 -0.000000 -0.000000
150
root -7.929310 32.878062 -3.566194 10.925351 5.140093 1.900685
Spine -8.238941 6.816002 0.936854
Head -8.330566 -6.688285 5.272413
LeftShoulder -8.385202 14.078951 15.753892
LeftArm 16.931713 -34.163270 -65.932322
LeftForeArm -1.183016 -0.000000 63.097868
LeftHand -31.486014 -0.000000 33.538238
LeftHandThumb1 -26.253704 0.000000 33.147579
RightShoulder -20.341458 10.606985 -23.714111
RightArm -15.158573 -31.446782 94.100708
RightForeArm -23.547032 -0.000000 27.879602
RightHand -5.672014 -0.000000 11.347510
RightHandThumb1 -24.326973 -0.000000 -32.862282
LeftUpLeg -57.214004 9.613279 -3.428997
LeftLeg 73.443275 -0.000000 -0.000000
LeftFoot 21.637923 18.724540 -12.410171
LeftToeBase 10.216541 -0.000000 -0.000000
RightUpLeg -10.040783 -5.706807 5.053177
RightLeg 4.517568 -0.000000 -0.000000
RightFoot -8.439852 -11.029360 -9.028486
RightToeBase 0.187253 -0.000000 -0.000000
